<?xml version="1.0" encoding="UTF-8" standalone="no"?>
<!-- Created with Inkscape (http://www.inkscape.org/) -->

<svg
   width="10"
   height="10"
   viewBox="0 0 15 15"
   version="1.1"
   id="svg5"
   inkscape:version="1.1 (c4e8f9ed74, 2021-05-24)"
   sodipodi:docname="Bolt.svg"
   xmlns:inkscape="http://www.inkscape.org/namespaces/inkscape"
   xmlns:sodipodi="http://sodipodi.sourceforge.net/DTD/sodipodi-0.dtd"
   xmlns="http://www.w3.org/2000/svg"
   xmlns:svg="http://www.w3.org/2000/svg">
  <sodipodi:namedview
     id="namedview7"
     pagecolor="#ffffff"
     bordercolor="#666666"
     borderopacity="1.0"
     inkscape:pageshadow="2"
     inkscape:pageopacity="0.0"
     inkscape:pagecheckerboard="0"
     inkscape:document-units="mm"
     showgrid="false"
     inkscape:snap-page="true"
     inkscape:snap-object-midpoints="true"
     inkscape:snap-midpoints="false"
     inkscape:snap-others="true"
     inkscape:snap-center="true"
     inkscape:zoom="11.089338"
     inkscape:cx="34.26715"
     inkscape:cy="20.875908"
     inkscape:window-width="1911"
     inkscape:window-height="1043"
     inkscape:window-x="4"
     inkscape:window-y="16"
     inkscape:window-maximized="1"
     inkscape:current-layer="layer1" />
  <defs
     id="defs2" />
  <g
     inkscape:label="Layer 1"
     inkscape:groupmode="layer"
     id="layer1">
    <path
       sodipodi:type="star"
       style="fill:#ececec;stroke:#ffffff;stroke-width:0"
       id="path2642"
       inkscape:flatsided="true"
       sodipodi:sides="6"
       sodipodi:cx="-6.1692672"
       sodipodi:cy="-22.307903"
       sodipodi:r1="23.84351"
       sodipodi:r2="20.649084"
       sodipodi:arg1="0.66062761"
       sodipodi:arg2="1.1842264"
       inkscape:rounded="0"
       inkscape:randomized="0"
       d="M 12.657742,-7.6772268 -9.4263003,1.3121028 -28.253309,-13.318574 l 3.257033,-23.620006 22.084042,-8.989329 18.827009,14.630676 z"
       transform="matrix(0.32383799,0.0387513,-0.0387513,0.32383799,8.6333829,14.963214)" />
    <path
       sodipodi:type="star"
       style="fill:#333333;stroke:#ffffff;stroke-width:0"
       id="path2642-0"
       inkscape:flatsided="true"
       sodipodi:sides="6"
       sodipodi:cx="-6.1692672"
       sodipodi:cy="-22.307903"
       sodipodi:r1="23.84351"
       sodipodi:r2="20.649084"
       sodipodi:arg1="0.66062761"
       sodipodi:arg2="1.1842264"
       inkscape:rounded="0"
       inkscape:randomized="0"
       transform="matrix(0.30271659,0.03622386,-0.03622386,0.30271659,8.5594612,14.476447)"
       d="M 12.657742,-7.6772268 -9.4263003,1.3121028 -28.253309,-13.318574 l 3.257033,-23.620006 22.084042,-8.989329 18.827009,14.630676 z" />
    <path
       sodipodi:type="star"
       style="fill:#999999;stroke:#ffffff;stroke-width:0"
       id="path1316"
       inkscape:flatsided="false"
       sodipodi:sides="3"
       sodipodi:cx="15.652836"
       sodipodi:cy="14.959818"
       sodipodi:r1="25.206518"
       sodipodi:r2="6.3172665"
       sodipodi:arg1="0.81033553"
       sodipodi:arg2="2.9018376"
       inkscape:rounded="0.37"
       inkscape:randomized="0"
       d="M 33.026564,33.222406 C 22.771281,30.228304 19.763669,19.480911 9.5162674,16.459946 2.8124723,14.483647 -13.900675,25.705373 -8.8498936,20.874614 -1.1292842,13.490329 9.6820382,16.259357 17.421971,8.8953298 22.485394,4.0778226 21.123668,-16.007051 22.781837,-9.2175661 25.31651,1.1608199 17.512801,9.1391858 20.020269,19.524178 c 1.640372,6.793807 19.715246,15.656953 13.006295,13.698228 z"
       transform="matrix(0.26458333,0,0,0.26458333,3.3585206,3.5418816)"
       inkscape:transform-center-x="0.69404967"
       inkscape:transform-center-y="-0.56881163" />
    <path
       sodipodi:type="star"
       style="fill:#4d4d4d;stroke:#ffffff;stroke-width:0"
       id="path1316-7"
       inkscape:flatsided="false"
       sodipodi:sides="3"
       sodipodi:cx="15.652836"
       sodipodi:cy="14.959818"
       sodipodi:r1="24.850821"
       sodipodi:r2="5.4042201"
       sodipodi:arg1="0.86304381"
       sodipodi:arg2="2.9861234"
       inkscape:rounded="0.37731581"
       inkscape:randomized="0"
       transform="matrix(0.26458333,0,0,0.26458333,3.3585206,3.5418816)"
       inkscape:transform-center-x="0.69404947"
       inkscape:transform-center-y="-0.56881123"
       d="M 31.809043,33.842091 C 21.929722,30.029028 20.299353,19.322119 10.313796,15.796627 c -6.9199552,-2.443153 -24.803179,8.32162 -19.0915922,3.71374 8.24187043,-6.649211 18.3295096,-2.707698 26.3754532,-9.5926979 5.575811,-4.7712805 5.194856,-25.6409931 6.329604,-18.3906739 1.63745,10.4622749 -6.81982,17.22767 -4.880207,27.6381618 1.344145,7.214434 19.608324,17.319374 12.761989,14.676934 z" />
  </g>
</svg>
