<?xml version="1.0" encoding="UTF-8" standalone="no"?>
<!-- Created with Inkscape (http://www.inkscape.org/) -->

<svg
   width="25"
   height="25"
   viewBox="0 0 14.2875 14.2875"
   version="1.1"
   id="svg5"
   inkscape:version="1.1 (c4e8f9ed74, 2021-05-24)"
   sodipodi:docname="HexKnob.svg"
   xmlns:inkscape="http://www.inkscape.org/namespaces/inkscape"
   xmlns:sodipodi="http://sodipodi.sourceforge.net/DTD/sodipodi-0.dtd"
   xmlns="http://www.w3.org/2000/svg"
   xmlns:svg="http://www.w3.org/2000/svg">
  <sodipodi:namedview
     id="namedview7"
     pagecolor="#ffffff"
     bordercolor="#666666"
     borderopacity="1.0"
     inkscape:pageshadow="2"
     inkscape:pageopacity="0.0"
     inkscape:pagecheckerboard="0"
     inkscape:document-units="mm"
     showgrid="false"
     inkscape:snap-page="true"
     inkscape:snap-object-midpoints="true"
     inkscape:snap-midpoints="false"
     inkscape:snap-others="true"
     inkscape:snap-center="true"
     inkscape:zoom="11.313709"
     inkscape:cx="22.097087"
     inkscape:cy="22.583223"
     inkscape:window-width="1911"
     inkscape:window-height="1043"
     inkscape:window-x="4"
     inkscape:window-y="16"
     inkscape:window-maximized="1"
     inkscape:current-layer="layer1"
     units="px" />
  <defs
     id="defs2" />
  <g
     inkscape:label="Layer 1"
     inkscape:groupmode="layer"
     id="layer1">
    <path
       sodipodi:type="star"
       style="fill:#4d4d4d;stroke:#ffffff;stroke-width:0"
       id="path4010"
       inkscape:flatsided="true"
       sodipodi:sides="12"
       sodipodi:cx="12.539417"
       sodipodi:cy="10.765984"
       sodipodi:r1="22.676016"
       sodipodi:r2="20.050642"
       sodipodi:arg1="1.0442272"
       sodipodi:arg2="1.3060266"
       inkscape:rounded="0.1"
       inkscape:randomized="2.7755576e-17"
       d="M 23.935707,30.370225 C 22.920917,30.96014 13.780565,33.438413 12.606773,33.441899 11.432981,33.445386 2.2780678,31.021457 1.259791,30.437581 0.24151426,29.853704 -6.4749087,23.177063 -7.0648241,22.162273 -7.6547394,21.147483 -10.133012,12.007131 -10.136499,10.833339 -10.139985,9.6595474 -7.7160561,0.50463415 -7.1321797,-0.51364264 -6.5483033,-1.5319194 0.12833746,-8.2483424 1.1431277,-8.8382578 2.1579179,-9.4281731 11.29827,-11.906446 12.472062,-11.909932 c 1.173791,-0.0035 10.328705,2.4204422 11.346981,3.0043186 1.018277,0.5838764 7.7347,7.2605172 8.324616,8.27530738 0.589915,1.01479021 3.068188,10.15514222 3.071674,11.32893402 0.0035,1.173792 -2.420442,10.328705 -3.004319,11.346982 -0.583876,1.018277 -7.260517,7.7347 -8.275307,8.324615 z"
       transform="matrix(0,0.31817829,-0.31817829,0,10.569252,3.1539794)" />
    <path
       sodipodi:type="star"
       style="fill:#1a1a1a;stroke:#ffffff;stroke-width:0"
       id="path4010-8"
       inkscape:flatsided="true"
       sodipodi:sides="6"
       sodipodi:cx="12.539417"
       sodipodi:cy="10.765984"
       sodipodi:r1="22.676016"
       sodipodi:r2="20.050642"
       sodipodi:arg1="1.0442272"
       sodipodi:arg2="1.567826"
       inkscape:rounded="0.02"
       inkscape:randomized="0"
       transform="matrix(0,0.31910741,-0.31910741,0,10.579255,3.1423287)"
       d="M 23.935707,30.370225 C 23.543622,30.598151 1.653223,30.663173 1.259791,30.437581 0.86635911,30.211988 -10.135151,11.286858 -10.136499,10.833339 -10.137846,10.379821 0.75104284,-8.610332 1.1431277,-8.8382578 1.5352125,-9.0661835 23.425612,-9.1312059 23.819043,-8.9056134 24.212475,-8.6800209 35.213986,10.24511 35.215333,10.698628 35.21668,11.152146 24.327792,30.142299 23.935707,30.370225 Z" />
    <path
       sodipodi:type="star"
       style="fill:#4d4d4d;stroke:#ffffff;stroke-width:0"
       id="path1316-7"
       inkscape:flatsided="false"
       sodipodi:sides="3"
       sodipodi:cx="15.652836"
       sodipodi:cy="14.959818"
       sodipodi:r1="24.850821"
       sodipodi:r2="5.4042201"
       sodipodi:arg1="0.86304381"
       sodipodi:arg2="2.9861234"
       inkscape:rounded="0.37731581"
       inkscape:randomized="0"
       transform="matrix(0.2252894,-0.06036611,0.06036611,0.2252894,2.7142657,4.7183622)"
       inkscape:transform-center-x="-0.20046744"
       inkscape:transform-center-y="-1.326972"
       d="M 31.809043,33.842091 C 21.929722,30.029028 20.299353,19.322119 10.313796,15.796627 c -6.9199552,-2.443153 -24.803179,8.32162 -19.0915922,3.71374 8.24187043,-6.649211 18.3295096,-2.707698 26.3754532,-9.5926979 5.575811,-4.7712805 5.194856,-25.6409931 6.329604,-18.3906739 1.63745,10.4622749 -6.81982,17.22767 -4.880207,27.6381618 1.344145,7.214434 19.608324,17.319374 12.761989,14.676934 z" />
    <path
       id="path1316"
       style="fill:#ffffff;stroke:#ffffff;stroke-width:0"
       inkscape:transform-center-x="-0.24959195"
       inkscape:transform-center-y="-1.4103432"
       d="M 7.4524683,1.091673 C 7.2168028,0.99153385 8.0620396,4.7406311 7.1286109,5.9832093 6.9080875,6.2767696 7.1400957,7.7446299 7.0451653,7.8892168 L 8.2478346,6.3685905 C 8.100331,4.5387785 8.1176425,1.108605 7.1725944,-0.07176175 6.7684892,-0.57648983 7.4861346,1.1059786 7.4524683,1.091673 Z"
       sodipodi:nodetypes="ssccss" />
  </g>
</svg>
